<?xml version="1.0" encoding="utf-8"?>
<!-- Generator: Adobe Illustrator 27.1.1, SVG Export Plug-In . SVG Version: 6.00 Build 0)  -->
<svg version="1.1" id="Layer_1" xmlns="http://www.w3.org/2000/svg" xmlns:xlink="http://www.w3.org/1999/xlink" x="0px" y="0px"
	 viewBox="0 0 1000 1000" style="enable-background:new 0 0 1000 1000;" xml:space="preserve">
<style type="text/css">
	.st0{fill:#EAA703;}
	.st1{fill:#FFFFFF;}
	.st2{fill:#FFFFFF;stroke:#0F0E0E;stroke-width:3;stroke-miterlimit:10;}
	.st3{fill:none;stroke:#0F0E0E;stroke-width:3;stroke-miterlimit:10;}
	.st4{fill:#0F0E0E;}
	.st5{fill:none;stroke:#0F0E0E;stroke-width:5;stroke-linecap:round;stroke-miterlimit:10;}
	.st6{fill:#FFFFFF;stroke:#0F0E0E;stroke-width:3;stroke-linecap:round;stroke-linejoin:round;stroke-miterlimit:10;}
	.st7{fill:none;stroke:#0F0E0E;stroke-width:3;stroke-linecap:round;stroke-miterlimit:10;}
	.st8{fill:none;stroke:#FFFFFF;stroke-width:1.5;stroke-linecap:round;stroke-miterlimit:10;}
	.st9{fill:#FFFFFF;stroke:#0F0E0E;stroke-width:3;stroke-linejoin:round;stroke-miterlimit:10;}
	.st10{fill:none;stroke:#0F0E0E;stroke-width:3;stroke-linecap:round;stroke-linejoin:round;stroke-miterlimit:10;}
</style>
<path class="st0" d="M484.97,161.21c-40.57-12.32-92.96,4.46-121.85,35.05c-41.4,43.83-10.3,90.3-51.75,133.54
	c-33.49,34.95-62.34,13.51-106.83,48.41c-46.38,36.38-79.09,105.25-61.76,156.91c12.12,36.16,38.17,30.43,59.88,75.66
	c24.57,51.19-1.02,74.29,21.73,114.93c27.51,49.16,91.44,62.68,117.68,68.23c51.91,10.98,62.19-4.59,130.79-4.65
	c116.52-0.1,163.09,44.79,193.7,16.34c29.61-27.53-8.3-75.62,25.04-121.85c31.01-43,77.83-21.09,115.15-64.27
	c36.31-42.01,40.06-118.36,8.35-160.25c-29.35-38.77-69.21-21.76-91.81-60.09c-24.49-41.54,14.73-74.39-11.29-126.12
	c-14.72-29.28-44.34-52.88-75.12-60.09c-26.89-6.3-32.74,5.08-61.76,0C529.3,204.93,524.01,173.06,484.97,161.21z"/>
<path class="st1" d="M523.61,341.03c6.72,2.64,50.74,20.74,66.76,68.07c14.16,41.83,0.8,89.78-34.04,121.75
	c12.72,19.85,24.94,32.94,33.89,41.31c4.87,4.55,10.01,8.87,15.87,16.62c9.6,12.71,13.52,24.59,15.8,31.48
	c11.94,36.18,10.93,95.34,10.84,99.97c34.32,11.93,68.63,23.85,102.95,35.78c-10.04,26.18-20.07,52.36-30.11,78.55
	C645.8,847.02,595.51,851.97,558.35,854c-24.86,1.36-46.01,2.69-74.01,0.85c-50.97-3.35-92.19-14.62-120.16-24.26
	c11.5-89.52,22.99-179.04,34.49-268.57c11.54-6.46,23.08-12.93,34.62-19.39c2.62-49.75,5.24-99.49,7.85-149.24
	C468.63,375.94,496.12,358.49,523.61,341.03z"/>
<path class="st2" d="M511.61,842.23c34.15,8.6,68.29,17.19,102.44,25.79c58.39-0.65,116.78-1.3,175.17-1.96
	c5.13-0.06,6.02-7.35,1.06-8.64c-32.53-8.47-65.05-16.95-97.58-25.42c-59.8-0.89-119.6-1.77-179.39-2.66
	C505.53,829.22,504.07,840.34,511.61,842.23z"/>
<path class="st3" d="M463.87,491.88c1.97,2.94,30.85,44.92,63.88,38.97c9.03-1.62,15.2-6.26,23.23-12.29
	c8.18-6.14,32.94-24.73,40.34-58.97c7.84-36.29-9.2-65.35-15.05-75.32c-2.33-3.98-4.54-7.17-6.18-9.41"/>
<path class="st4" d="M535.14,369.05c5.01-0.19,16.04,0.08,27.66,6.5c13.18,7.28,19.22,18.12,21.52,22.37
	c6.48,12,6.91,22.82,7.22,34.02c0.36,12.98,0.89,32.49-10.41,53.9c-12.05,22.83-30.46,34.36-38.66,38.84
	c-3.27,1.64-6.53,3.27-9.8,4.91c1.13,6.12,2.26,12.24,3.38,18.36c10.14,2.91,18.3,6.3,24.19,9.08c12.2,5.74,21.06,11.81,22.91,13.09
	c12.86,8.9,17.17,14.83,19.03,13.57c3.73-2.51-9.61-29.01-11.61-47.01c-0.59-5.3-0.69-10.62-0.69-10.62
	c-0.1-5.5,0.2-10.11,0.53-13.45c7.74-10.47,21.23-34.37,25.94-67.8c5.8-41.17-15.5-74.47-19.54-80.56
	c-4.59-6.91-30.35-45.67-59.89-41.53c-5.56,0.78-10,2.9-13.08,4.76c2.27,8.39,4.55,16.78,6.82,25.16
	C532.18,358.11,533.66,363.58,535.14,369.05z"/>
<path class="st5" d="M555.3,426.56c2.82-1.1,6.9-2.31,11.91-2.56c8.06-0.4,14.36,1.91,17.7,3.43"/>
<path class="st5" d="M527.77,423.44c-3.33-1.76-8.42-3.96-14.96-5.01c-7.7-1.23-14.1-0.33-18.06,0.54"/>
<path class="st6" d="M415.59,552.54c-10.31,4.41-24.91,12.2-38.49,26c-28.89,29.37-33.64,65.94-36.65,95.56
	c-4.75,46.69-9.33,91.62,19.64,123.05c23.55,25.55,58.81,30.21,96.87,35.35c26.76,3.61,49.61,2.7,66.04,1.01
	c1.32-0.14,2.39-1.1,2.66-2.4c1.62-7.69,8.49-32.05,32.09-43.12c8.78-4.12,13.71-2.02,14.26-4.39c1.69-7.22-44.7-24.55-76.48-34.33
	c-24.47-7.53-45.5-12.18-60.9-15.1c-0.88-19.85-1.75-39.7-2.63-59.55"/>
<path class="st7" d="M546.79,456.16c4.71,1.23,7.8,5.59,7.41,10.08c-0.33,3.83-3.14,7.17-7.05,8.31"/>
<path class="st7" d="M511.31,477.67c1.68,2.44,5.7,7.55,12.85,10.8c5.38,2.45,10.26,2.81,13.09,2.8"/>
<path class="st3" d="M537.75,542.14c16.88,5.17,49.38,18.15,70.54,49.8c14.71,21.99,18.37,44.66,22.05,67.39
	c4.05,25.02,3.58,46.23,2.39,60.9c30.19,14.17,60.37,28.34,90.56,42.52c-14.84,13.96-29.67,27.93-44.51,41.89"/>
<path class="st3" d="M467.26,569.88c22.26,40.6,46.48,69.92,59.7,65.62c14.16-4.6,16.4-47.95,5.72-105.91"/>
<path class="st4" d="M523.87,327.48c-6.9-1.5-17.62-2.89-30.03-0.4c-5.08,1.02-23.2,4.9-46.59,29.68
	c-24.69,26.16-36.55,53.82-41.8,68.04c-11.88,32.22-25.84,70.09-9.69,102.94c9.91,20.16,30.21,27.15,29.07,46.36
	c-0.39,6.62-2.72,6.62-10.32,23.97c-7.46,17.03-13.67,31.21-14.59,49.55c-0.75,14.84,2.29,26.14,4.63,34.31
	c7.02,24.45,20.3,41.82,30.09,52.25c3.54,0.46,7.21,1.04,11.01,1.76c7.99,1.52,15.3,3.43,21.9,5.51
	c2.14-10.17,5.5-25.62,10.05-44.42c7.68-31.74,9.11-31.71,10.01-40.34c3.27-31.49-7.39-45.5-13.02-78.75
	c-2.81-16.6-4.82-41.04,0.32-72.29c-2.12-4.06-4.24-8.43-6.28-13.12c-3.02-6.95-5.45-13.57-7.4-19.72
	c-6.24-0.86-11.21-4.77-12.4-9.8c-1.5-6.33,3.29-11.39,3.79-11.9c3.61-3.7,7.72-3.57,12.23-4.9c3.44-1.01,8.28-3.2,20.7-17.97
	c10.89-12.95,11.98-17.11,19.8-26.96c16.74-21.07,25.8-20.55,29.79-32.21C537.83,361.23,538.08,348.34,523.87,327.48z"/>
<path class="st8" d="M404.26,527.53c-8.66-26.8-2.51-39.65,1.33-45.11c0.98-1.39,3.3-3.87,25.09-17.66
	c7.57-4.79,13.9-8.66,18.25-11.29"/>
<circle class="st4" cx="514.47" cy="436.38" r="3.94"/>
<path class="st9" d="M573.82,783.5c4.99,1.96,12.28,5.14,20.51,10.04c26.15,15.57,49.04,41.86,44.51,48.87
	c-1.97,3.05-10.03,3.85-37.31-6.55c0.9,1.09,3.89,4.92,2.73,7.74c-1.36,3.32-8.36,4.95-17.13,1.86c-0.26,0.81-0.63,1.51-1.09,2.11
	c-8.68,11.34-52.5-9.03-63.05-14.07c1.11-5.46,6.05-26.51,25.67-40.06C558.26,786.83,567.79,784.45,573.82,783.5z"/>
<path class="st2" d="M646.33,706.9c-14.84,48.24-29.69,96.48-44.53,144.72c-2.52,8.2,3.67,16.49,12.25,16.39
	c69.33-0.77,138.66-1.55,207.99-2.32c5.38-0.06,10.13-3.51,11.86-8.61c16.24-48.01,32.49-96.03,48.73-144.04
	c2.79-8.25-3.39-16.8-12.1-16.73c-70.73,0.55-141.47,1.09-212.2,1.64C652.81,698,647.95,701.62,646.33,706.9z"/>
<ellipse transform="matrix(0.5758 -0.8176 0.8176 0.5758 -319.8755 947.835)" class="st4" cx="753.46" cy="782.17" rx="24.55" ry="19.31"/>
<path class="st7" d="M594.41,645.3c6.34,13.78,16.79,41.53,14.4,77.24c-1.65,24.59-8.78,43.92-14.48,56.17"/>
<path class="st6" d="M563.64,832.46c3.87,1.28,8.51,3.17,13.45,6.02c4.01,2.31,7.34,4.75,10.04,6.98"/>
<path class="st6" d="M572.95,816.45c4.65,1.36,11.83,4.1,19.08,9.85c5.26,4.18,8.87,8.6,11.22,12.01"/>
<path class="st6" d="M587.13,805.32c4.05,1.82,8.67,4.22,13.53,7.42c4.14,2.72,7.66,5.51,10.61,8.1"/>
<path class="st3" d="M365.99,803.88c-0.6,8.9-1.21,17.8-1.81,26.7"/>
<circle class="st4" cx="565.66" cy="443.27" r="3.94"/>
<g>
	<path class="st2" d="M631.63,329.72l-3.66-1.08c-8.39-2.49-13.21-11.38-10.73-19.77l4.39-14.79c1.49-5.03,6.83-7.93,11.86-6.44
		l15.85,4.7c5.03,1.49,7.93,6.83,6.44,11.86l-4.39,14.79C648.91,327.38,640.02,332.21,631.63,329.72z"/>
	<path class="st2" d="M687.02,262.98c-1.8,8.46-6.33,15.51-12.43,20.51c-7.03,5.76-12,13.66-14.58,22.37v0
		c-1.65,5.56-7.5,8.74-13.06,7.09l-22.65-6.72c-5.56-1.65-8.74-7.5-7.09-13.06l0,0c2.64-8.91,2.46-18.38-0.21-27.28
		c-1.94-6.5-2.08-13.61-0.01-20.6c5.92-19.96,27.53-30.97,47.37-23.57C680.96,227.91,690.7,245.63,687.02,262.98z"/>
	<path class="st0" d="M624.14,293.55c2.95-4.05,6.38-10.15,6.87-17.8c0.75-11.82-6.25-16.3-4.22-24.93
		c2.03-8.66,11.97-16.53,22.97-16.92c12.89-0.46,22.66,9.5,25.71,19.47c0.33,1.1,3.64,12.47-2.25,20.77
		c-3.71,5.23-8.18,5.18-13,11.57c-3.32,4.41-4.67,9.05-5.29,12.28C644.67,296.52,634.41,295.03,624.14,293.55z"/>
	<path class="st2" d="M654.61,308.87l-34.54-10.24c-2.88-0.85-4.52-3.88-3.67-6.76l0.37-1.25c0.85-2.88,3.88-4.52,6.76-3.67
		l34.54,10.24c2.88,0.85,4.52,3.88,3.67,6.76l-0.37,1.25C660.52,308.08,657.49,309.72,654.61,308.87z"/>
	<path class="st2" d="M651.15,320.54l-34.54-10.24c-2.88-0.85-4.52-3.88-3.67-6.76l0.37-1.25c0.85-2.88,3.88-4.52,6.76-3.67
		l34.54,10.24c2.88,0.85,4.52,3.88,3.67,6.76l-0.37,1.25C657.05,319.75,654.03,321.39,651.15,320.54z"/>
	<path class="st10" d="M638.68,291.44c0.55-12.98,1.11-25.95,1.66-38.93c2.06,2.84,4.59,5.16,7.48,5.14
		c3.09-0.03,4.83-2.72,6.75-1.86c2.1,0.93,1.11,4.59,3.38,6.42c1.97,1.58,5.23,0.87,7.93-0.13c-6.03,10.69-12.05,21.38-18.08,32.07"
		/>
</g>
<g>
	<path class="st6" d="M798.7,589.59l-103.39-18.06c-5.14-0.9-8.58-5.79-7.68-10.93l9.64-55.21c0.9-5.14,5.79-8.58,10.93-7.68
		l103.39,18.06c5.14,0.9,8.58,5.79,7.68,10.93l-9.64,55.21C808.74,587.05,803.84,590.49,798.7,589.59z"/>
	<g>
		<path class="st10" d="M731.27,516.08c-8.41,5.59-16.82,11.19-25.23,16.78c-1.62,1.08-1.98,3.3-0.8,4.84
			c6.42,8.31,12.84,16.62,19.26,24.93"/>
		<path class="st10" d="M788.96,526.74c4.98,8.79,9.96,17.58,14.94,26.36c0.96,1.69,0.28,3.84-1.47,4.67
			c-9.48,4.52-18.96,9.03-28.43,13.55"/>
		<path class="st10" d="M774.28,523.64c-10.55,13.74-21.1,27.47-31.64,41.21"/>
	</g>
</g>
<g>
	<g>
		<path class="st2" d="M271.1,627.28c11.99-5.56,19.48,3.97,32.22-1.04c16.53-6.49,27.58-31.81,22.87-50.93
			c-7.09-28.8-50.07-44.13-82.11-35.34c-38.97,10.69-65.34,58.02-52.83,91.92c9,24.39,38.48,42.78,53.37,36.1
			C258.76,661.64,253.31,635.53,271.1,627.28z"/>
		<circle class="st10" cx="301.13" cy="578.74" r="11.03"/>
		<circle class="st10" cx="269.65" cy="561.8" r="11.03"/>
		<circle class="st10" cx="233.06" cy="572.83" r="11.03"/>
		<circle class="st10" cx="228.29" cy="637.77" r="11.03"/>
		<circle class="st10" cx="217.26" cy="603.43" r="11.03"/>
	</g>
	<g>
		<g>
			<path class="st2" d="M281.61,623.22c10.01-31.32,20.02-62.64,30.03-93.96"/>
			<path class="st2" d="M276.5,621.59l32.93-93.04c0.43-1.21,1.75-1.84,2.96-1.41c1.16,0.41,1.78,1.65,1.45,2.82l-27.12,94.89
				C284.48,631.79,274.3,628.58,276.5,621.59L276.5,621.59z"/>
		</g>
		<path class="st9" d="M275.29,623.47c1.59,0.92,4.12,2.11,7.4,2.53c1.59,0.2,3.01,0.18,4.18,0.07c-1.54,4.81-3.08,9.63-4.62,14.44
			c-0.74,0.3-3.62,1.37-6.96,0.2c-2.55-0.9-4.01-2.63-4.55-3.36C272.25,632.72,273.77,628.09,275.29,623.47z"/>
		<path class="st9" d="M270.74,637.35c-1.57,1.79-3.42,4.52-3.56,7.94c-0.19,4.86,3.24,7.2,2.03,10.76
			c-1.25,3.68-6.05,4.51-5.68,5.77c0.32,1.07,3.99,1.17,6.97,0.45c5.44-1.31,8.6-5.37,9.5-6.62c2.74-3.83,3.1-7.63,3.16-8.39
			c0.24-2.99-0.42-5.38-0.91-6.75c-1.14,0.24-3.26,0.54-5.79-0.08C273.53,639.71,271.61,638.15,270.74,637.35z"/>
	</g>
</g>
<g>
	<g>
		<rect x="273.76" y="278.62" class="st6" width="44.13" height="114.4"/>
		<path class="st6" d="M275.23,307.64c14.71,0,29.42,0,44.13,0"/>
		<path class="st6" d="M273.45,336.26c14.71,0,29.42,0,44.13,0"/>
		<path class="st6" d="M275.23,368.31c14.71,0,29.42,0,44.13,0"/>
	</g>
	<g>
		
			<rect x="290.35" y="287.68" transform="matrix(0.953 0.3031 -0.3031 0.953 119.2181 -78.4646)" class="st6" width="44.13" height="114.4"/>
		<path class="st6" d="M301.33,311.78c14.02,4.46,28.04,8.92,42.06,13.38"/>
		<path class="st6" d="M290.96,338.52c14.02,4.46,28.04,8.92,42.06,13.38"/>
		<path class="st6" d="M282.94,369.6c14.02,4.46,28.04,8.92,42.06,13.38"/>
	</g>
	<g>
		
			<rect x="307.54" y="309.2" transform="matrix(0.7156 0.6985 -0.6985 0.7156 349.6598 -126.0309)" class="st6" width="44.13" height="114.4"/>
		<path class="st6" d="M334.55,331.85c10.18,9.93,20.35,19.87,30.53,29.8"/>
		<path class="st6" d="M313.28,351.08c10.53,10.28,21.06,20.55,31.58,30.83"/>
		<path class="st6" d="M292.17,375.27c10.18,9.93,20.35,19.87,30.53,29.8"/>
	</g>
	<g>
		
			<rect x="221.34" y="301.04" transform="matrix(0.8902 -0.4555 0.4555 0.8902 -118.812 146.593)" class="st6" width="46.86" height="37.58"/>
		<path class="st6" d="M219.88,311.63c5.79,11.05,11.57,22.1,17.36,33.16"/>
		<path class="st6" d="M226.26,308.25c5.79,11.05,11.57,22.1,17.36,33.16"/>
		<path class="st6" d="M239.14,301.72c5.79,11.05,11.57,22.1,17.36,33.16"/>
		<path class="st6" d="M245.51,298.34c5.79,11.05,11.57,22.1,17.36,33.16"/>
		<path class="st6" d="M232.71,305.01c5.79,11.05,11.57,22.1,17.36,33.16"/>
		<path class="st6" d="M251.94,295.05c5.79,11.05,11.57,22.1,17.36,33.16"/>
		<g>
			<path class="st6" d="M233.31,350.32l5.93,11.58c1.84,3.6,6.24,5.02,9.84,3.18l1.87-0.96c3.79-1.94,8.43-0.44,10.37,3.35
				l11.84,23.13c4.19,8.18,7.37,16.8,10.27,25.51c0.26,0.78,0.61,1.53,1.07,2.27c2.58,4.13,7.82,5.93,12.39,4.24
				c5.96-2.2,8.51-9.02,5.7-14.52c-0.37-0.72-0.8-1.39-1.31-1.99c-5.06-5.94-9.11-12.67-12.66-19.61l-13.38-26.15
				c-1.94-3.79-0.44-8.43,3.35-10.37l1.88-0.96c3.6-1.84,5.02-6.24,3.18-9.84l-5.93-11.58L233.31,350.32z M294.75,415.7
				c-2.02,1.03-4.49,0.23-5.52-1.79c-1.03-2.02-0.23-4.49,1.78-5.52c2.02-1.03,4.5-0.24,5.53,1.78
				C297.57,412.19,296.78,414.66,294.75,415.7z"/>
		</g>
		<path class="st6" d="M215.35,313.77c0.56,3.03,3.46,5.96,6.45,6.44c4.64,0.75,5.96-4.98,12.4-5.67c4.59-0.49,5.45,2.26,9.51,1.43
			c5.54-1.13,5.72-6.62,10.32-7.53c6.55-1.3,12.35,8.65,14.84,7.03c1.71-1.11,0.15-6.55-0.62-8.68c-1.11-3.07-2.1-3.52-5.28-9
			c-2.96-5.12-2.61-5.62-3.73-6.41c-3.22-2.29-7.89,0.61-18.29,5.12c-13.45,5.84-24.25,9.07-25.52,14.62
			C215.11,312.47,215.35,313.77,215.35,313.77z"/>
		<path class="st6" d="M280.37,339.84l-38.49,19.69c-2.16,1.11-4.81,0.25-5.91-1.91l-6.91-13.5c-1.11-2.16-0.25-4.81,1.91-5.91
			l38.49-19.69c2.16-1.11,4.81-0.25,5.91,1.91l6.91,13.5C283.38,336.09,282.53,338.74,280.37,339.84z"/>
	</g>
</g>
<circle class="st10" cx="753.46" cy="652.67" r="11.65"/>
<path class="st10" d="M471.79,246.41c-4.83,0.54-11.34,0.66-13.5-2.64c-2.8-4.29,4.06-10.82,1.47-15.1
	c-1.31-2.16-5.3-4.19-18.08-2.34"/>
<path class="st10" d="M752.08,377.27c1.19,0.69,3.96,2.52,4.24,5.36c0.17,1.69-0.62,3.01-1.77,4.89c-2.33,3.78-4.38,7.02-6.07,9.61
	c1.75-2.04,5.73-6.54,10.2-10.2c1.23-1.01,2.8-2.2,5.13-2.78c1.89-0.47,3.54-0.36,4.61-0.21c-1.68-0.8-3.73-2.12-4.23-4.21
	c-0.39-1.62,0.32-3.01,0.82-4.2c0.95-2.23,1.96-5.59,2.03-10.33c-0.38,5.13-3.31,9.56-7.68,11.4
	C756.33,377.88,753.47,377.54,752.08,377.27z"/>
<path class="st10" d="M299.81,739.2h-16.37c-2.07,0-3.76-1.69-3.76-3.76v-16.37c0-2.07,1.69-3.76,3.76-3.76h16.37
	c2.07,0,3.76,1.69,3.76,3.76v16.37C303.57,737.51,301.88,739.2,299.81,739.2z"/>
</svg>
