<svg width="99" height="93" viewBox="0 0 99 93" fill="none" xmlns="http://www.w3.org/2000/svg">
<path fill-rule="evenodd" clip-rule="evenodd" d="M46.5 0C20.8087 0 0 21.3351 0 47.6762C0 68.7729 13.3106 86.5918 31.7944 92.9089C34.1194 93.3261 34.9912 91.8958 34.9912 90.6443C34.9912 89.512 34.9331 85.7575 34.9331 81.7646C23.25 83.9696 20.2275 78.8445 19.2975 76.1627C18.7744 74.792 16.5075 70.5607 14.5312 69.4284C12.9037 68.5345 10.5787 66.3295 14.4731 66.2699C18.135 66.2103 20.7506 69.7264 21.6225 71.1567C25.8075 78.3677 32.4919 76.3415 35.1656 75.09C35.5725 71.991 36.7931 69.9052 38.13 68.7133C27.7837 67.5214 16.9725 63.4093 16.9725 45.1732C16.9725 39.9884 18.7744 35.6975 21.7388 32.3602C21.2738 31.1683 19.6462 26.2815 22.2037 19.726C22.2037 19.726 26.0981 18.4745 34.9912 24.6128C38.7112 23.5401 42.6638 23.0037 46.6163 23.0037C50.5688 23.0037 54.5213 23.5401 58.2413 24.6128C67.1344 18.4149 71.0288 19.726 71.0288 19.726C73.5863 26.2815 71.9588 31.1683 71.4938 32.3602C74.4581 35.6975 76.26 39.9288 76.26 45.1732C76.26 63.4689 65.3906 67.5214 55.0444 68.7133C56.73 70.2031 58.1831 73.0637 58.1831 77.5334C58.1831 83.91 58.125 89.0352 58.125 90.6443C58.125 91.8958 58.9969 93.3857 61.3219 92.9089C79.6894 86.5918 93 68.7133 93 47.6762C93 21.3351 72.1913 0 46.5 0Z" fill="#EAA703"/>
</svg>
