<svg width="660" height="621" viewBox="0 0 660 621" fill="none" xmlns="http://www.w3.org/2000/svg">
<path d="M347.385 26.2172C379.502 16.4801 420.975 29.7421 443.845 53.9189C476.618 88.5599 451.998 125.287 484.811 159.462C511.323 187.085 534.161 170.14 569.38 197.723C606.096 226.476 631.99 280.907 618.271 321.737C608.676 350.316 588.055 345.787 570.869 381.534C551.418 421.992 571.676 440.249 553.667 472.369C531.889 511.223 481.281 521.908 460.508 526.295C419.415 534.973 411.277 522.667 356.972 522.619C264.732 522.54 227.866 558.019 203.635 535.534C180.195 513.775 210.205 475.768 183.812 439.23C159.264 405.245 122.2 422.561 92.6568 388.434C63.913 355.232 60.9444 294.888 86.0468 261.781C109.281 231.139 140.835 244.583 158.726 214.289C178.113 181.458 147.065 155.495 167.663 114.61C179.316 91.4684 202.764 72.8162 227.13 67.1177C248.417 62.1385 253.048 71.1327 276.021 67.1177C312.293 60.7712 316.48 35.5828 347.385 26.2172Z" fill="#EAA703"/>
<path d="M234.533 151.018L237.425 150.165C244.054 148.197 247.863 141.172 245.903 134.543L242.434 122.856C241.257 118.882 237.038 116.59 233.063 117.768L220.539 121.482C216.564 122.659 214.273 126.878 215.45 130.853L218.919 142.539C220.879 149.169 227.903 152.985 234.533 151.018Z" fill="white" stroke="#0F0E0E" stroke-width="3" stroke-miterlimit="10"/>
<path d="M190.765 98.2822C192.188 104.967 195.767 110.538 200.587 114.488C206.142 119.04 210.069 125.282 212.108 132.164C213.411 136.558 218.034 139.071 222.427 137.767L240.324 132.457C244.718 131.153 247.23 126.531 245.927 122.137C243.841 115.097 243.983 107.614 246.093 100.582C247.625 95.4455 247.736 89.8274 246.1 84.3042C241.423 68.5325 224.347 59.8328 208.67 65.68C195.554 70.5711 187.857 84.5728 190.765 98.2822Z" fill="white" stroke="#0F0E0E" stroke-width="3" stroke-miterlimit="10"/>
<path d="M240.449 122.438C238.118 119.238 235.408 114.418 235.021 108.373C234.428 99.033 239.959 95.4931 238.355 88.674C236.751 81.8311 228.897 75.6125 220.205 75.3044C210.02 74.9409 202.3 82.8109 199.89 90.6889C199.629 91.5581 197.014 100.542 201.668 107.101C204.599 111.233 208.132 111.194 211.94 116.243C214.563 119.727 215.63 123.394 216.12 125.946C224.227 124.784 232.334 123.607 240.449 122.438Z" fill="#EAA703"/>
<path d="M216.375 134.543L243.667 126.452C245.943 125.78 247.239 123.386 246.567 121.11L246.275 120.123C245.603 117.847 243.209 116.551 240.933 117.223L213.641 125.314C211.365 125.986 210.069 128.38 210.741 130.655L211.033 131.643C211.705 133.919 214.099 135.215 216.375 134.543Z" fill="white" stroke="#0F0E0E" stroke-width="3" stroke-miterlimit="10"/>
<path d="M219.109 143.764L246.401 135.673C248.677 135.001 249.973 132.607 249.301 130.331L249.009 129.343C248.337 127.068 245.943 125.772 243.667 126.444L216.375 134.535C214.099 135.206 212.804 137.601 213.475 139.876L213.768 140.864C214.447 143.14 216.833 144.436 219.109 143.764Z" fill="white" stroke="#0F0E0E" stroke-width="3" stroke-miterlimit="10"/>
<path d="M228.961 120.77C228.526 110.514 228.084 100.266 227.649 90.0093C226.021 92.2533 224.022 94.0865 221.739 94.0707C219.297 94.047 217.922 91.9215 216.405 92.601C214.746 93.3359 215.528 96.2279 213.734 97.6739C212.178 98.9223 209.602 98.3613 207.468 97.5712C212.233 106.018 216.99 114.465 221.755 122.912" stroke="#0F0E0E" stroke-width="3" stroke-miterlimit="10" stroke-linecap="round" stroke-linejoin="round"/>
<path d="M102.52 364.042L184.215 349.772C188.276 349.061 190.995 345.197 190.283 341.135L182.666 297.51C181.955 293.449 178.091 290.731 174.03 291.442L92.3346 305.712C88.2731 306.423 85.555 310.287 86.2661 314.349L93.8833 357.974C94.5866 362.035 98.4584 364.753 102.52 364.042Z" fill="white" stroke="#0F0E0E" stroke-width="3" stroke-miterlimit="10" stroke-linecap="round" stroke-linejoin="round"/>
<path d="M155.803 305.957C162.448 310.374 169.094 314.799 175.739 319.216C177.019 320.069 177.303 321.824 176.371 323.04C171.298 329.607 166.225 336.173 161.152 342.739" stroke="#0F0E0E" stroke-width="3" stroke-miterlimit="10" stroke-linecap="round" stroke-linejoin="round"/>
<path d="M110.218 314.38C106.283 321.326 102.348 328.271 98.4131 335.209C97.6546 336.544 98.1919 338.243 99.5747 338.899C107.065 342.471 114.556 346.034 122.039 349.606" stroke="#0F0E0E" stroke-width="3" stroke-miterlimit="10" stroke-linecap="round" stroke-linejoin="round"/>
<path d="M144.124 308.841C139.597 321.759 135.077 334.672 130.546 347.583" stroke="#0F0E0E" stroke-width="3" stroke-miterlimit="10" stroke-linecap="round" stroke-linejoin="round"/>
<path d="M529.015 393.824C519.541 389.43 513.623 396.96 503.556 393.002C490.495 387.874 481.763 367.867 485.485 352.759C491.087 330.002 525.049 317.889 550.366 324.834C581.158 333.281 601.995 370.68 592.11 397.466C584.999 416.738 561.704 431.269 549.939 425.991C538.766 420.974 543.072 400.342 529.015 393.824Z" fill="white" stroke="#0F0E0E" stroke-width="3" stroke-miterlimit="10"/>
<path d="M505.286 364.184C500.473 364.184 496.571 360.282 496.571 355.468C496.571 350.655 500.473 346.753 505.286 346.753C510.1 346.753 514.002 350.655 514.002 355.468C514.002 360.282 510.1 364.184 505.286 364.184Z" stroke="#0F0E0E" stroke-width="3" stroke-miterlimit="10" stroke-linecap="round" stroke-linejoin="round"/>
<path d="M530.159 350.799C525.346 350.799 521.444 346.897 521.444 342.084C521.444 337.27 525.346 333.368 530.159 333.368C534.973 333.368 538.875 337.27 538.875 342.084C538.875 346.897 534.973 350.799 530.159 350.799Z" stroke="#0F0E0E" stroke-width="3" stroke-miterlimit="10" stroke-linecap="round" stroke-linejoin="round"/>
<path d="M559.074 359.515C554.26 359.515 550.358 355.612 550.358 350.799C550.358 345.986 554.26 342.083 559.074 342.083C563.887 342.083 567.789 345.986 567.789 350.799C567.789 355.612 563.887 359.515 559.074 359.515Z" stroke="#0F0E0E" stroke-width="3" stroke-miterlimit="10" stroke-linecap="round" stroke-linejoin="round"/>
<path d="M562.843 410.828C558.03 410.828 554.128 406.926 554.128 402.112C554.128 397.299 558.03 393.397 562.843 393.397C567.657 393.397 571.559 397.299 571.559 402.112C571.559 406.926 567.657 410.828 562.843 410.828Z" stroke="#0F0E0E" stroke-width="3" stroke-miterlimit="10" stroke-linecap="round" stroke-linejoin="round"/>
<path d="M571.56 383.693C566.746 383.693 562.844 379.791 562.844 374.978C562.844 370.164 566.746 366.262 571.56 366.262C576.373 366.262 580.275 370.164 580.275 374.978C580.275 379.791 576.373 383.693 571.56 383.693Z" stroke="#0F0E0E" stroke-width="3" stroke-miterlimit="10" stroke-linecap="round" stroke-linejoin="round"/>
<path d="M520.713 390.615C512.803 365.867 504.894 341.12 496.984 316.372Z" fill="white"/>
<path d="M520.713 390.615C512.803 365.867 504.894 341.12 496.984 316.372" stroke="#0F0E0E" stroke-width="3" stroke-miterlimit="10"/>
<path d="M524.752 389.327L498.732 315.81C498.392 314.854 497.349 314.357 496.393 314.696C495.476 315.02 494.986 316 495.247 316.925L516.676 391.903C518.446 397.387 526.49 394.851 524.752 389.327Z" fill="white" stroke="#0F0E0E" stroke-width="3" stroke-miterlimit="10"/>
<path d="M525.709 390.813C524.453 391.54 522.454 392.48 519.862 392.812C518.606 392.97 517.484 392.954 516.559 392.867C517.776 396.668 518.993 400.477 520.21 404.277C520.795 404.514 523.07 405.36 525.709 404.435C527.724 403.724 528.878 402.357 529.305 401.78C528.112 398.122 526.91 394.464 525.709 390.813Z" fill="white" stroke="#0F0E0E" stroke-width="3" stroke-miterlimit="10" stroke-linejoin="round"/>
<path d="M529.304 401.781C530.545 403.195 532.007 405.352 532.117 408.054C532.268 411.895 529.557 413.744 530.513 416.557C531.501 419.464 535.294 420.12 535.002 421.116C534.749 421.961 531.849 422.04 529.494 421.471C525.196 420.436 522.699 417.228 521.988 416.241C519.822 413.214 519.538 410.212 519.491 409.611C519.301 407.248 519.822 405.36 520.21 404.277C521.11 404.467 522.786 404.704 524.785 404.214C527.1 403.645 528.617 402.413 529.304 401.781Z" fill="white" stroke="#0F0E0E" stroke-width="3" stroke-miterlimit="10" stroke-linejoin="round"/>
<path d="M482.439 118.324H517.309V208.719H482.439V118.324Z" fill="white" stroke="#0F0E0E" stroke-width="3" stroke-miterlimit="10" stroke-linecap="round" stroke-linejoin="round"/>
<path d="M516.146 141.255C504.523 141.255 492.9 141.255 481.277 141.255Z" fill="white"/>
<path d="M516.146 141.255C504.523 141.255 492.9 141.255 481.277 141.255" stroke="#0F0E0E" stroke-width="3" stroke-miterlimit="10" stroke-linecap="round" stroke-linejoin="round"/>
<path d="M517.553 163.87C505.929 163.87 494.306 163.87 482.683 163.87Z" fill="white"/>
<path d="M517.553 163.87C505.929 163.87 494.306 163.87 482.683 163.87" stroke="#0F0E0E" stroke-width="3" stroke-miterlimit="10" stroke-linecap="round" stroke-linejoin="round"/>
<path d="M516.146 189.195C504.523 189.195 492.9 189.195 481.277 189.195Z" fill="white"/>
<path d="M516.146 189.195C504.523 189.195 492.9 189.195 481.277 189.195" stroke="#0F0E0E" stroke-width="3" stroke-miterlimit="10" stroke-linecap="round" stroke-linejoin="round"/>
<path d="M456.451 132.907L489.682 122.338L517.08 208.485L483.849 219.054L456.451 132.907Z" fill="white" stroke="#0F0E0E" stroke-width="3" stroke-miterlimit="10" stroke-linecap="round" stroke-linejoin="round"/>
<path d="M495.525 144.526C484.447 148.051 473.369 151.575 462.291 155.099Z" fill="white"/>
<path d="M495.525 144.526C484.447 148.051 473.369 151.575 462.291 155.099" stroke="#0F0E0E" stroke-width="3" stroke-miterlimit="10" stroke-linecap="round" stroke-linejoin="round"/>
<path d="M503.721 165.656C492.643 169.18 481.564 172.704 470.486 176.228Z" fill="white"/>
<path d="M503.721 165.656C492.643 169.18 481.564 172.704 470.486 176.228" stroke="#0F0E0E" stroke-width="3" stroke-miterlimit="10" stroke-linecap="round" stroke-linejoin="round"/>
<path d="M510.055 190.214C498.977 193.738 487.898 197.262 476.82 200.786Z" fill="white"/>
<path d="M510.055 190.214C498.977 193.738 487.898 197.262 476.82 200.786" stroke="#0F0E0E" stroke-width="3" stroke-miterlimit="10" stroke-linecap="round" stroke-linejoin="round"/>
<path d="M429.145 167.515L454.098 143.159L517.238 207.845L492.286 232.202L429.145 167.515Z" fill="white" stroke="#0F0E0E" stroke-width="3" stroke-miterlimit="10" stroke-linecap="round" stroke-linejoin="round"/>
<path d="M469.277 160.385C461.233 168.231 453.197 176.086 445.154 183.932Z" fill="white"/>
<path d="M469.277 160.385C461.233 168.231 453.197 176.086 445.154 183.932" stroke="#0F0E0E" stroke-width="3" stroke-miterlimit="10" stroke-linecap="round" stroke-linejoin="round"/>
<path d="M486.082 175.58C477.762 183.703 469.441 191.818 461.129 199.941Z" fill="white"/>
<path d="M486.082 175.58C477.762 183.703 469.441 191.818 461.129 199.941" stroke="#0F0E0E" stroke-width="3" stroke-miterlimit="10" stroke-linecap="round" stroke-linejoin="round"/>
<path d="M502.766 194.694C494.722 202.54 486.686 210.394 478.642 218.241Z" fill="white"/>
<path d="M502.766 194.694C494.722 202.54 486.686 210.394 478.642 218.241" stroke="#0F0E0E" stroke-width="3" stroke-miterlimit="10" stroke-linecap="round" stroke-linejoin="round"/>
<path d="M530.503 129.224L563.465 146.09L549.939 172.524L516.977 155.658L530.503 129.224Z" fill="white" stroke="#0F0E0E" stroke-width="3" stroke-miterlimit="10" stroke-linecap="round" stroke-linejoin="round"/>
<path d="M559.885 144.408C555.31 153.139 550.743 161.87 546.168 170.61Z" fill="white"/>
<path d="M559.885 144.408C555.31 153.139 550.743 161.87 546.168 170.61" stroke="#0F0E0E" stroke-width="3" stroke-miterlimit="10" stroke-linecap="round" stroke-linejoin="round"/>
<path d="M554.842 141.737C550.267 150.468 545.7 159.2 541.125 167.939Z" fill="white"/>
<path d="M554.842 141.737C550.267 150.468 545.7 159.2 541.125 167.939" stroke="#0F0E0E" stroke-width="3" stroke-miterlimit="10" stroke-linecap="round" stroke-linejoin="round"/>
<path d="M544.666 136.577C540.091 145.308 535.524 154.04 530.949 162.779Z" fill="white"/>
<path d="M544.666 136.577C540.091 145.308 535.524 154.04 530.949 162.779" stroke="#0F0E0E" stroke-width="3" stroke-miterlimit="10" stroke-linecap="round" stroke-linejoin="round"/>
<path d="M539.631 133.906C535.056 142.638 530.489 151.369 525.914 160.108Z" fill="white"/>
<path d="M539.631 133.906C535.056 142.638 530.489 151.369 525.914 160.108" stroke="#0F0E0E" stroke-width="3" stroke-miterlimit="10" stroke-linecap="round" stroke-linejoin="round"/>
<path d="M549.746 139.177C545.171 147.908 540.604 156.639 536.029 165.379Z" fill="white"/>
<path d="M549.746 139.177C545.171 147.908 540.604 156.639 536.029 165.379" stroke="#0F0E0E" stroke-width="3" stroke-miterlimit="10" stroke-linecap="round" stroke-linejoin="round"/>
<path d="M534.551 131.307C529.976 140.038 525.409 148.77 520.834 157.509Z" fill="white"/>
<path d="M534.551 131.307C529.976 140.038 525.409 148.77 520.834 157.509" stroke="#0F0E0E" stroke-width="3" stroke-miterlimit="10" stroke-linecap="round" stroke-linejoin="round"/>
<path d="M549.271 174.979L544.586 184.129C543.132 186.974 539.655 188.096 536.811 186.642L535.333 185.883C532.338 184.351 528.672 185.536 527.139 188.53L517.783 206.807C514.473 213.271 511.96 220.082 509.668 226.964C509.463 227.58 509.186 228.173 508.823 228.758C506.784 232.021 502.644 233.443 499.033 232.108C494.323 230.37 492.308 224.981 494.529 220.635C494.821 220.066 495.161 219.537 495.564 219.062C499.562 214.369 502.762 209.051 505.567 203.567L516.14 182.905C517.673 179.91 516.488 176.243 513.493 174.711L512.007 173.952C509.163 172.498 508.041 169.021 509.495 166.177L514.18 157.027L549.271 174.979ZM500.724 226.64C502.32 227.454 504.272 226.822 505.085 225.226C505.899 223.63 505.267 221.678 503.679 220.864C502.083 220.05 500.123 220.674 499.309 222.271C498.495 223.867 499.12 225.818 500.724 226.64Z" fill="white" stroke="#0F0E0E" stroke-width="3" stroke-miterlimit="10" stroke-linecap="round" stroke-linejoin="round"/>
<path d="M563.463 146.099C563.02 148.493 560.729 150.808 558.366 151.187C554.7 151.78 553.657 147.252 548.568 146.707C544.942 146.32 544.262 148.493 541.054 147.837C536.676 146.944 536.534 142.606 532.899 141.887C527.724 140.86 523.141 148.722 521.173 147.442C519.822 146.565 521.055 142.266 521.663 140.583C522.54 138.158 523.323 137.802 525.835 133.472C528.174 129.426 527.898 129.031 528.783 128.407C531.327 126.597 535.017 128.889 543.235 132.453C553.862 137.067 562.396 139.619 563.4 144.005C563.653 145.072 563.463 146.099 563.463 146.099Z" fill="white" stroke="#0F0E0E" stroke-width="3" stroke-miterlimit="10" stroke-linecap="round" stroke-linejoin="round"/>
<path d="M512.085 166.698L542.498 182.257C544.205 183.134 546.299 182.454 547.168 180.747L552.628 170.08C553.505 168.373 552.826 166.279 551.119 165.41L520.706 149.852C518.999 148.975 516.905 149.654 516.036 151.361L510.576 162.028C509.707 163.735 510.378 165.829 512.085 166.698Z" fill="white" stroke="#0F0E0E" stroke-width="3" stroke-miterlimit="10" stroke-linecap="round" stroke-linejoin="round"/>
<path d="M138.5 424C133.253 424 129 419.299 129 413.5C129 407.701 133.253 403 138.5 403C143.747 403 148 407.701 148 413.5C148 419.299 143.747 424 138.5 424Z" stroke="#0F0E0E" stroke-width="3" stroke-miterlimit="10" stroke-linecap="round" stroke-linejoin="round"/>
<path d="M362 92.7787C365.689 93.1883 370.662 93.2793 372.312 90.7764C374.451 87.5227 369.211 82.57 371.189 79.3239C372.19 77.6856 375.238 76.146 385 77.5491" stroke="#0F0E0E" stroke-width="3" stroke-miterlimit="10" stroke-linecap="round" stroke-linejoin="round"/>
<path d="M138.111 195.45C137.156 195.991 134.934 197.423 134.709 199.647C134.573 200.97 135.207 202.004 136.129 203.476C137.999 206.435 139.644 208.972 141 211C139.596 209.403 136.402 205.879 132.815 203.014C131.828 202.223 130.569 201.291 128.699 200.837C127.183 200.469 125.859 200.555 125 200.673C126.348 200.046 127.993 199.013 128.394 197.376C128.707 196.108 128.137 195.02 127.736 194.088C126.974 192.342 126.163 189.711 126.107 186C126.412 190.017 128.763 193.485 132.27 194.926C134.701 195.928 136.996 195.662 138.111 195.45Z" stroke="#0F0E0E" stroke-width="3" stroke-miterlimit="10" stroke-linecap="round" stroke-linejoin="round"/>
<path d="M497.676 483H509.324C510.797 483 512 481.585 512 479.852V466.148C512 464.415 510.797 463 509.324 463H497.676C496.203 463 495 464.415 495 466.148V479.852C495 481.585 496.203 483 497.676 483Z" stroke="#0F0E0E" stroke-width="3" stroke-miterlimit="10" stroke-linecap="round" stroke-linejoin="round"/>
<path d="M324.258 168C318.958 170.093 282.635 182.983 270 220.5C258.832 253.657 270.974 293.122 298.452 318.463C288.42 334.197 287.276 339.292 275.5 345C269.276 347.292 261.622 354.357 257 360.5C249.429 370.575 246 373 243.5 379.5C225.5 450.5 233.429 463.83 233.5 467.5C206.432 476.956 184.068 487.482 157 496.939C164.918 517.691 172.829 538.442 180.748 559.202C227.888 569.079 267.551 573.002 296.859 574.612C316.466 575.69 333.147 576.744 355.23 575.285C395.43 572.63 427.94 563.697 450 556.055C440.93 485.096 431.868 414.137 422.798 343.17C413.696 338.05 404.595 332.921 395.493 327.801C393.427 288.366 391.361 248.939 389.302 209.504C367.621 195.672 345.94 181.84 324.258 168Z" fill="white"/>
<path d="M329.096 563.665C302.197 570.112 275.305 576.552 248.405 583C202.412 582.513 156.419 582.025 110.426 581.531C106.385 581.486 105.684 576.02 109.591 575.053C135.214 568.703 160.83 562.345 186.453 555.995C233.557 555.328 280.661 554.668 327.757 554.001C333.886 553.911 335.036 562.248 329.096 563.665Z" fill="white" stroke="#0F0E0E" stroke-width="3" stroke-miterlimit="10"/>
<path d="M367 286.679C365.463 289.008 342.935 322.256 317.169 317.543C310.125 316.26 305.312 312.585 299.048 307.81C292.667 302.947 273.353 288.224 267.58 261.106C261.464 232.364 274.757 209.349 279.32 201.453C281.138 198.301 282.862 195.774 284.141 194" stroke="#0F0E0E" stroke-width="3" stroke-miterlimit="10"/>
<path d="M310.936 190.569C306.918 190.42 298.07 190.632 288.75 195.666C278.178 201.374 274.345 210.668 272.5 214C267.302 223.409 265.946 231.099 265.698 239.881C265.409 250.059 264.984 265.356 274.047 282.144C283.713 300.045 298.48 309.085 305.057 312.598C307.68 313.884 310.295 315.162 312.917 316.448C312.011 321.247 311.105 326.046 310.206 330.844C302.073 333.126 295.528 335.784 290.803 337.964C281.018 342.465 273.911 347.224 272.427 348.228C262.112 355.206 258.655 359.856 257.163 358.868C254.171 356.9 264.871 336.121 266.476 322.007C266.949 317.852 267.029 313.68 267.029 313.68C267.109 309.368 266.869 305.753 266.604 303.134C260.396 294.925 249.575 276.185 245.797 249.972C241.145 217.691 258.23 191.581 261.47 186.806C265.152 181.387 285.814 150.996 309.509 154.242C313.968 154.854 317.53 156.516 320 157.974C318.179 164.553 316.35 171.131 314.53 177.702C313.31 181.991 312.123 186.28 310.936 190.569Z" fill="#0F0E0E"/>
<path d="M294 234.748C291.714 233.166 288.407 231.426 284.346 231.066C277.814 230.49 272.707 233.813 270 236" stroke="#0F0E0E" stroke-width="5" stroke-miterlimit="10" stroke-linecap="round"/>
<path d="M316 231C318.622 230.373 322.63 229.589 327.78 229.214C333.843 228.776 338.882 229.097 342 229.407" stroke="#0F0E0E" stroke-width="5" stroke-miterlimit="10" stroke-linecap="round"/>
<path d="M405.113 336C413.226 339.466 424.713 345.589 435.399 356.435C458.131 379.519 461.868 408.262 464.237 431.543C467.974 468.24 471.578 503.554 448.783 528.257C430.253 548.338 402.509 552.001 372.562 556.041C351.506 558.878 333.526 558.163 320.598 556.835C319.56 556.725 318.718 555.97 318.506 554.948C317.231 548.904 311.825 529.758 293.256 521.057C286.347 517.819 282.468 519.47 282.035 517.607C280.706 511.932 317.207 498.311 342.213 490.624C361.467 484.706 378.014 481.051 390.132 478.756C390.824 463.155 391.509 447.553 392.201 431.952" fill="white"/>
<path d="M405.113 336C413.226 339.466 424.713 345.589 435.399 356.435C458.131 379.519 461.868 408.262 464.237 431.543C467.974 468.24 471.578 503.554 448.783 528.257C430.253 548.338 402.509 552.001 372.562 556.041C351.506 558.878 333.526 558.163 320.598 556.835C319.56 556.725 318.718 555.97 318.506 554.948C317.231 548.904 311.825 529.758 293.256 521.057C286.347 517.819 282.468 519.47 282.035 517.607C280.706 511.932 317.207 498.311 342.213 490.624C361.467 484.706 378.014 481.051 390.132 478.756C390.824 463.155 391.509 447.553 392.201 431.952" stroke="#0F0E0E" stroke-width="3" stroke-miterlimit="10" stroke-linecap="round" stroke-linejoin="round"/>
<path d="M301.852 273C298.069 272.107 295.351 269.492 295.032 266.493C294.655 262.977 297.644 259.563 302.2 258.6L304 246" stroke="#0F0E0E" stroke-width="3" stroke-miterlimit="10" stroke-linecap="round"/>
<path d="M335.033 281.286C332.925 283.763 328.059 288.854 320.822 291.214C315.375 292.995 310.888 292.475 308.338 291.923" stroke="#0F0E0E" stroke-width="3" stroke-miterlimit="10" stroke-linecap="round"/>
<path d="M308 327C294.626 331.057 268.877 341.243 252.112 366.081C240.458 383.338 237.558 401.129 234.643 418.966C231.434 438.601 231.806 455.246 232.749 466.758C208.83 477.878 184.919 488.998 161 500.126C172.757 511.082 184.507 522.045 196.264 533" stroke="#0F0E0E" stroke-width="3" stroke-miterlimit="10"/>
<path d="M364 347.829C346.405 379.903 327.261 403.066 316.812 399.669C305.62 396.035 303.849 361.789 312.291 316" stroke="#0F0E0E" stroke-width="3" stroke-miterlimit="10"/>
<path d="M319.039 157.39C324.489 156.21 332.956 155.116 342.758 157.076C346.771 157.878 361.083 160.932 379.557 180.432C399.058 201.018 408.426 222.784 412.572 233.974C421.956 259.329 432.982 289.13 420.226 314.981C412.399 330.845 396.365 336.346 397.265 351.463C397.573 356.672 399.414 356.672 405.417 370.326C411.309 383.727 416.214 394.886 416.94 409.318C417.533 420.996 415.132 429.888 413.283 436.317C407.739 455.558 397.25 469.227 389.517 477.434C386.721 477.796 383.822 478.253 380.821 478.819C374.51 480.015 375.014 475.137 366.427 468.187C359.986 460.703 359.179 462.994 355.585 448.2C349.519 423.223 348.39 423.246 347.679 416.455C345.096 391.675 353.516 380.65 357.963 354.485C360.182 341.422 361.77 322.189 357.71 297.598C359.384 294.403 361.059 290.964 362.67 287.273C365.055 281.804 366.975 276.594 368.515 271.755C373.444 271.078 377.369 268.001 378.309 264.043C379.494 259.062 375.71 255.08 375.316 254.678C372.464 251.767 369.218 251.869 365.656 250.822C362.939 250.028 359.116 248.304 349.306 236.681C340.705 226.491 339.844 223.217 333.667 215.466C320.445 198.885 313.289 199.294 310.138 190.119C308.013 183.949 307.815 173.806 319.039 157.39Z" fill="#0F0E0E"/>
<path d="M412.684 315C419.214 293.288 414.577 282.877 411.681 278.454C410.942 277.328 409.193 275.319 392.762 264.147C387.053 260.266 382.28 257.131 379 255" stroke="white" stroke-width="1.5" stroke-miterlimit="10" stroke-linecap="round"/>
<path d="M331 249C327.134 249 324 245.642 324 241.5C324 237.358 327.134 234 331 234C334.866 234 338 237.358 338 241.5C338 245.642 334.866 249 331 249Z" fill="#0F0E0E"/>
<path d="M285 252C281.134 252 278 248.642 278 244.5C278 240.358 281.134 237 285 237C288.866 237 292 240.358 292 244.5C292 248.642 288.866 252 285 252Z" fill="#0F0E0E"/>
<path d="M279.271 517C275.37 518.569 269.672 521.115 263.24 525.037C242.8 537.502 224.909 558.548 228.45 564.159C229.99 566.601 236.29 567.242 257.612 558.916C256.909 559.789 254.572 562.855 255.478 565.112C256.541 567.77 262.013 569.075 268.867 566.601C269.07 567.25 269.36 567.81 269.719 568.29C276.504 577.368 310.754 561.061 319 557.027C318.132 552.656 314.271 535.805 298.936 524.957C291.432 519.666 283.984 517.761 279.271 517Z" fill="white" stroke="#0F0E0E" stroke-width="3" stroke-miterlimit="10" stroke-linejoin="round"/>
<path d="M223.347 456.327C235.079 494.255 246.819 532.184 258.551 570.113C260.543 576.56 255.65 583.078 248.867 582.999C194.057 582.394 139.246 581.781 84.4361 581.175C80.1829 581.128 76.4276 578.415 75.0599 574.406C62.2211 536.658 49.3744 498.902 36.5355 461.154C34.3298 454.668 39.2155 447.945 46.1014 448C102.018 448.433 157.943 448.857 213.86 449.29C218.224 449.329 222.066 452.175 223.347 456.327Z" fill="white" stroke="#0F0E0E" stroke-width="3" stroke-miterlimit="10"/>
<path d="M263.935 408C258.805 418.846 250.348 440.686 252.282 468.792C253.617 488.145 259.387 503.359 264 513" stroke="#0F0E0E" stroke-width="3" stroke-miterlimit="10" stroke-linecap="round"/>
<path d="M288 556C284.87 556.985 281.117 558.438 277.121 560.631C273.877 562.408 271.184 564.285 269 566" fill="white"/>
<path d="M288 556C284.87 556.985 281.117 558.438 277.121 560.631C273.877 562.408 271.184 564.285 269 566" stroke="#0F0E0E" stroke-width="3" stroke-miterlimit="10" stroke-linecap="round" stroke-linejoin="round"/>
<path d="M282 543C278.163 544.12 272.239 546.376 266.257 551.111C261.917 554.553 258.939 558.192 257 561" fill="white"/>
<path d="M282 543C278.163 544.12 272.239 546.376 266.257 551.111C261.917 554.553 258.939 558.192 257 561" stroke="#0F0E0E" stroke-width="3" stroke-miterlimit="10" stroke-linecap="round" stroke-linejoin="round"/>
<path d="M269 533C266.148 534.759 262.894 537.079 259.472 540.171C256.556 542.8 254.077 545.497 252 548" fill="white"/>
<path d="M269 533C266.148 534.759 262.894 537.079 259.472 540.171C256.556 542.8 254.077 545.497 252 548" stroke="#0F0E0E" stroke-width="3" stroke-miterlimit="10" stroke-linecap="round" stroke-linejoin="round"/>
<path d="M445 533C445.331 540.333 445.669 547.667 446 555" stroke="#0F0E0E" stroke-width="3" stroke-miterlimit="10"/>
<g filter="url(#filter0_f_1318_89)">
<ellipse cx="345.5" cy="262" rx="9.5" ry="11" fill="#FFE4E4"/>
</g>
<g filter="url(#filter1_f_1318_89)">
<ellipse cx="278" cy="266.5" rx="8" ry="7.5" fill="#FFE4E4" fill-opacity="0.69"/>
</g>
<path d="M135.955 517.259C133.201 517.489 130.983 516.904 129.303 515.504C127.622 514.104 126.663 511.984 126.426 509.146L125.708 500.548C125.605 499.311 126.527 498.224 127.768 498.121C129.008 498.017 130.097 498.936 130.201 500.172L130.905 508.605C131.058 510.448 131.548 511.744 132.374 512.491C133.199 513.239 134.296 513.556 135.664 513.441C137.032 513.327 138.061 512.833 138.752 511.959C139.442 511.084 139.71 509.726 139.556 507.883L138.85 499.423C138.748 498.201 139.658 497.128 140.883 497.026C142.109 496.923 143.184 497.831 143.286 499.052L144.007 507.678C144.048 508.172 144.064 508.648 144.055 509.106L145.506 525.85C145.594 523.24 146.532 521.011 148.161 519.332C150.02 517.416 152.624 516.372 155.449 516.138C156.5 516.051 157.423 516.83 157.509 517.879C157.596 518.927 156.814 519.847 155.763 519.934C153.654 520.109 151.991 520.862 150.907 521.98C149.85 523.069 149.191 524.658 149.34 526.857C149.477 528.85 150.454 530.248 151.863 531.153C153.323 532.091 155.29 532.514 157.258 532.318C158.308 532.214 159.244 532.978 159.348 534.025C159.452 535.072 158.685 536.005 157.635 536.109C154.939 536.376 152.082 535.826 149.792 534.355C147.827 533.093 146.315 531.165 145.747 528.633L146.282 534.801C146.372 535.849 145.594 536.772 144.543 536.863C143.492 536.954 142.566 536.179 142.475 535.131L141.234 520.809C141.036 518.527 138.245 517.068 135.955 517.259Z" fill="#F6B129" stroke="black" stroke-miterlimit="10" stroke-linecap="round"/>
<defs>
<filter id="filter0_f_1318_89" x="329" y="244" width="33" height="36" filterUnits="userSpaceOnUse" color-interpolation-filters="sRGB">
<feFlood flood-opacity="0" result="BackgroundImageFix"/>
<feBlend mode="normal" in="SourceGraphic" in2="BackgroundImageFix" result="shape"/>
<feGaussianBlur stdDeviation="3.5" result="effect1_foregroundBlur_1318_89"/>
</filter>
<filter id="filter1_f_1318_89" x="263" y="252" width="30" height="29" filterUnits="userSpaceOnUse" color-interpolation-filters="sRGB">
<feFlood flood-opacity="0" result="BackgroundImageFix"/>
<feBlend mode="normal" in="SourceGraphic" in2="BackgroundImageFix" result="shape"/>
<feGaussianBlur stdDeviation="3.5" result="effect1_foregroundBlur_1318_89"/>
</filter>
</defs>
</svg>
