<?xml version="1.0" encoding="utf-8"?>
<!-- Generator: Adobe Illustrator 27.3.1, SVG Export Plug-In . SVG Version: 6.00 Build 0)  -->
<svg version="1.1" id="Layer_1" xmlns="http://www.w3.org/2000/svg" xmlns:xlink="http://www.w3.org/1999/xlink" x="0px" y="0px"
	 viewBox="0 0 633 594" style="enable-background:new 0 0 633 594;" xml:space="preserve">
<style type="text/css">
	.st0{fill:#EAA703;}
	.st1{fill:#FFFFFF;stroke:#0F0E0E;stroke-width:3;stroke-miterlimit:10;}
	.st2{fill:none;stroke:#0F0E0E;stroke-width:3;stroke-linecap:round;stroke-linejoin:round;stroke-miterlimit:10;}
	.st3{fill:#FFFFFF;stroke:#0F0E0E;stroke-width:3;stroke-linecap:round;stroke-linejoin:round;stroke-miterlimit:10;}
	.st4{fill:none;stroke:#0F0E0E;stroke-width:3;stroke-miterlimit:10;}
	.st5{fill:#FFFFFF;stroke:#0F0E0E;stroke-width:3;stroke-linejoin:round;stroke-miterlimit:10;}
	.st6{fill:#FFFFFF;}
	.st7{fill:none;stroke:#0F0E0E;stroke-width:3;stroke-linecap:round;stroke-miterlimit:10;}
	.st8{fill:#FFFFFF;stroke:#0F0E0E;stroke-width:3;}
	.st9{fill:#FFFFFF;stroke:#000000;stroke-width:3;}
	.st10{fill:none;stroke:#0F0E0E;stroke-width:5;stroke-linecap:round;stroke-miterlimit:10;}
	.st11{fill:#0F0E0E;}
	.st12{fill:#FFE4E4;}
	.st13{fill:none;stroke:#FFFFFF;stroke-width:1.5;stroke-linecap:round;stroke-miterlimit:10;}
	.st14{fill:#FFFFFF;stroke:#000000;stroke-width:4;}
</style>
<path id="background" class="st0" d="M313.7,51.9c28.8-8.7,66,3.2,86.5,24.8c29.4,31,7.3,64,36.7,94.6c23.8,24.8,44.3,9.6,75.9,34.3
	c32.9,25.8,56.2,74.5,43.9,111.1c-8.6,25.6-27.1,21.6-42.5,53.6c-17.4,36.3,0.7,52.6-15.4,81.4c-19.5,34.8-64.9,44.4-83.6,48.3
	c-36.9,7.8-44.2-3.3-92.9-3.3c-82.7-0.1-115.8,31.7-137.5,11.6c-21-19.5,5.9-53.6-17.8-86.3c-22-30.5-55.3-14.9-81.8-45.5
	c-25.8-29.8-28.4-83.8-5.9-113.5c20.8-27.5,49.1-15.4,65.2-42.6c17.4-29.4-10.5-52.7,8-89.3c10.5-20.7,31.5-37.5,53.3-42.6
	c19.1-4.5,23.2,3.6,43.9,0C282.2,82.8,286,60.3,313.7,51.9z"/>
<g id="lightbulb">
	<path class="st1" d="M212.5,170.2l2.6-0.8c5.9-1.8,9.4-8.1,7.6-14l-3.1-10.5c-1.1-3.6-4.8-5.6-8.4-4.6l-11.2,3.3
		c-3.6,1.1-5.6,4.8-4.6,8.4l3.1,10.5C200.2,168.5,206.5,171.9,212.5,170.2z"/>
	<path class="st1" d="M173.2,122.9c1.3,6,4.5,11,8.8,14.5c5,4.1,8.5,9.7,10.3,15.9c1.2,3.9,5.3,6.2,9.3,5l16.1-4.8
		c3.9-1.2,6.2-5.3,5-9.3c-1.9-6.3-1.7-13,0.1-19.3c1.4-4.6,1.5-9.6,0-14.6c-4.2-14.1-19.5-22-33.6-16.7
		C177.5,98,170.6,110.6,173.2,122.9z"/>
	<path class="st0" d="M217.8,144.5c-2.1-2.9-4.5-7.2-4.9-12.6c-0.5-8.4,4.4-11.6,3-17.7s-8.5-11.7-16.3-12
		c-9.1-0.3-16.1,6.7-18.2,13.8c-0.2,0.8-2.6,8.8,1.6,14.7c2.6,3.7,5.8,3.7,9.2,8.2c2.4,3.1,3.3,6.4,3.8,8.7
		C203.2,146.6,210.5,145.6,217.8,144.5z"/>
	<path class="st1" d="M196.2,155.4l24.5-7.3c2-0.6,3.2-2.8,2.6-4.8l-0.3-0.9c-0.6-2-2.8-3.2-4.8-2.6l-24.5,7.3
		c-2,0.6-3.2,2.8-2.6,4.8l0.3,0.9C192,154.8,194.2,156,196.2,155.4z"/>
	<path class="st1" d="M198.6,163.7l24.5-7.3c2-0.6,3.2-2.8,2.6-4.8l-0.3-0.9c-0.6-2-2.8-3.2-4.8-2.6l-24.5,7.3
		c-2,0.6-3.2,2.8-2.6,4.8l0.3,0.9C194.5,163.1,196.6,164.3,198.6,163.7z"/>
	<path class="st2" d="M207.5,143c-0.4-9.2-0.8-18.4-1.2-27.6c-1.5,2-3.3,3.7-5.3,3.6c-2.2,0-3.4-1.9-4.8-1.3
		c-1.5,0.7-0.8,3.3-2.4,4.6c-1.4,1.1-3.7,0.6-5.6-0.1c4.3,7.6,8.5,15.2,12.8,22.7"/>
</g>
<g id="code">
	<path class="st3" d="M94.1,354.4l73.3-12.8c3.6-0.6,6.1-4.1,5.4-7.7l-6.8-39.1c-0.6-3.6-4.1-6.1-7.7-5.4L85,302.2
		c-3.6,0.6-6.1,4.1-5.4,7.7l6.8,39.1C86.9,352.6,90.4,355,94.1,354.4z"/>
	<path class="st2" d="M141.9,302.3c6,4,11.9,7.9,17.9,11.9c1.1,0.8,1.4,2.3,0.6,3.4c-4.6,5.9-9.1,11.8-13.7,17.7"/>
	<path class="st2" d="M101,309.8c-3.5,6.2-7.1,12.5-10.6,18.7c-0.7,1.2-0.2,2.7,1,3.3c6.7,3.2,13.4,6.4,20.2,9.6"/>
	<path class="st2" d="M131.4,304.9c-4.1,11.6-8.1,23.2-12.2,34.8"/>
</g>
<g id="palette">
	<path class="st4" d="M460.6,378.2c-7.1-22.2-14.2-44.4-21.3-66.6"/>
	<path class="st1" d="M468,381.1c-8.5-3.9-13.8,2.8-22.8-0.7c-11.7-4.6-19.5-22.5-16.2-36.1c5-20.4,35.5-31.3,58.2-25
		c27.6,7.6,46.3,41.1,37.4,65.2c-6.4,17.3-27.3,30.3-37.8,25.6C476.8,405.5,480.6,386.9,468,381.1z"/>
	<path class="st2" d="M446.7,354.5c-4.3,0-7.8-3.5-7.8-7.8s3.5-7.8,7.8-7.8s7.8,3.5,7.8,7.8S451.1,354.5,446.7,354.5z"/>
	<path class="st2" d="M469.1,342.5c-4.3,0-7.8-3.5-7.8-7.8s3.5-7.8,7.8-7.8s7.8,3.5,7.8,7.8S473.4,342.5,469.1,342.5z"/>
	<path class="st2" d="M495,350.3c-4.3,0-7.8-3.5-7.8-7.8s3.5-7.8,7.8-7.8s7.8,3.5,7.8,7.8S499.3,350.3,495,350.3z"/>
	<path class="st2" d="M498.4,396.3c-4.3,0-7.8-3.5-7.8-7.8s3.5-7.8,7.8-7.8s7.8,3.5,7.8,7.8S502.7,396.3,498.4,396.3z"/>
	<path class="st2" d="M506.2,372c-4.3,0-7.8-3.5-7.8-7.8s3.5-7.8,7.8-7.8s7.8,3.5,7.8,7.8S510.5,372,506.2,372z"/>
	<path class="st1" d="M464.2,377.1l-23.3-65.9c-0.3-0.9-1.2-1.3-2.1-1c-0.8,0.3-1.3,1.2-1,2l19.2,67.3
		C458.5,384.3,465.8,382,464.2,377.1z"/>
	<path class="st5" d="M465.1,378.4c-1.1,0.7-2.9,1.5-5.2,1.8c-1.1,0.1-2.1,0.1-3,0c1.1,3.4,2.2,6.8,3.3,10.2c0.5,0.2,2.6,1,4.9,0.1
		c1.8-0.6,2.8-1.9,3.2-2.4C467.2,385,466.1,381.7,465.1,378.4z"/>
	<path class="st5" d="M468.3,388.2c1.1,1.3,2.4,3.2,2.5,5.6c0.1,3.4-2.3,5.1-1.4,7.6c0.9,2.6,4.3,3.2,4,4.1
		c-0.2,0.8-2.8,0.8-4.9,0.3c-3.9-0.9-6.1-3.8-6.7-4.7c-1.9-2.7-2.2-5.4-2.2-5.9c-0.2-2.1,0.3-3.8,0.6-4.8c0.8,0.2,2.3,0.4,4.1-0.1
		C466.3,389.9,467.7,388.8,468.3,388.2z"/>
	<path class="st6" d="M460.6,378.2c-7.1-22.2-14.2-44.4-21.3-66.6L460.6,378.2z"/>
</g>
<g id="painting">
	<path class="st3" d="M434.9,134h31.3v81h-31.3V134z"/>
	<path class="st6" d="M465.1,154.5c-10.4,0-20.9,0-31.3,0H465.1z"/>
	<path class="st2" d="M465.1,154.5c-10.4,0-20.9,0-31.3,0"/>
	<path class="st6" d="M466.4,174.8c-10.4,0-20.9,0-31.3,0H466.4z"/>
	<path class="st2" d="M466.4,174.8c-10.4,0-20.9,0-31.3,0"/>
	<path class="st6" d="M465.1,197.5c-10.4,0-20.9,0-31.3,0H465.1z"/>
	<path class="st2" d="M465.1,197.5c-10.4,0-20.9,0-31.3,0"/>
	<path class="st3" d="M411.6,147l29.8-9.5l24.6,77.3l-29.8,9.5L411.6,147z"/>
	<path class="st6" d="M446.6,157.5c-9.9,3.2-19.9,6.3-29.8,9.5L446.6,157.5z"/>
	<path class="st2" d="M446.6,157.5c-9.9,3.2-19.9,6.3-29.8,9.5"/>
	<path class="st6" d="M454,176.4c-9.9,3.2-19.9,6.3-29.8,9.5L454,176.4z"/>
	<path class="st2" d="M454,176.4c-9.9,3.2-19.9,6.3-29.8,9.5"/>
	<path class="st6" d="M459.6,198.4c-9.9,3.2-19.9,6.3-29.8,9.5L459.6,198.4z"/>
	<path class="st2" d="M459.6,198.4c-9.9,3.2-19.9,6.3-29.8,9.5"/>
	<path class="st3" d="M387.1,178.1l22.4-21.8l56.6,58l-22.4,21.8L387.1,178.1z"/>
	<path class="st6" d="M423.1,171.7c-7.2,7-14.4,14.1-21.6,21.1L423.1,171.7z"/>
	<path class="st2" d="M423.1,171.7c-7.2,7-14.4,14.1-21.6,21.1"/>
	<path class="st6" d="M438.1,185.3c-7.5,7.3-14.9,14.6-22.4,21.9L438.1,185.3z"/>
	<path class="st2" d="M438.1,185.3c-7.5,7.3-14.9,14.6-22.4,21.9"/>
	<path class="st6" d="M453.1,202.5c-7.2,7-14.4,14.1-21.6,21.1L453.1,202.5z"/>
	<path class="st2" d="M453.1,202.5c-7.2,7-14.4,14.1-21.6,21.1"/>
	<path class="st3" d="M478,143.7l29.6,15.1l-12.1,23.7l-29.6-15.1L478,143.7z"/>
	<path class="st6" d="M504.3,157.4c-4.1,7.8-8.2,15.7-12.3,23.5L504.3,157.4z"/>
	<path class="st2" d="M504.3,157.4c-4.1,7.8-8.2,15.7-12.3,23.5"/>
	<path class="st6" d="M499.8,155c-4.1,7.8-8.2,15.7-12.3,23.5L499.8,155z"/>
	<path class="st2" d="M499.8,155c-4.1,7.8-8.2,15.7-12.3,23.5"/>
	<path class="st6" d="M490.7,150.3c-4.1,7.8-8.2,15.7-12.3,23.5L490.7,150.3z"/>
	<path class="st2" d="M490.7,150.3c-4.1,7.8-8.2,15.7-12.3,23.5"/>
	<path class="st6" d="M486.2,147.9c-4.1,7.8-8.2,15.7-12.3,23.5L486.2,147.9z"/>
	<path class="st2" d="M486.2,147.9c-4.1,7.8-8.2,15.7-12.3,23.5"/>
	<path class="st6" d="M495.2,152.7c-4.1,7.8-8.2,15.7-12.3,23.5L495.2,152.7z"/>
	<path class="st2" d="M495.2,152.7c-4.1,7.8-8.2,15.7-12.3,23.5"/>
	<path class="st6" d="M481.6,145.6c-4.1,7.8-8.2,15.7-12.3,23.5L481.6,145.6z"/>
	<path class="st2" d="M481.6,145.6c-4.1,7.8-8.2,15.7-12.3,23.5"/>
	<path class="st3" d="M494.8,184.8l-4.2,8.2c-1.3,2.6-4.4,3.6-7,2.3l-1.3-0.7c-2.7-1.4-6-0.3-7.4,2.4l-8.4,16.4
		c-3,5.8-5.2,11.9-7.3,18.1c-0.2,0.6-0.4,1.1-0.8,1.6c-1.8,2.9-5.5,4.2-8.8,3c-4.2-1.6-6-6.4-4-10.3c0.3-0.5,0.6-1,0.9-1.4
		c3.6-4.2,6.5-9,9-13.9L465,192c1.4-2.7,0.3-6-2.4-7.4l-1.3-0.7c-2.6-1.3-3.6-4.4-2.3-7l4.2-8.2L494.8,184.8z M451.3,231.1
		c1.4,0.7,3.2,0.2,3.9-1.3c0.7-1.4,0.2-3.2-1.3-3.9c-1.4-0.7-3.2-0.2-3.9,1.3C449.3,228.6,449.8,230.4,451.3,231.1z"/>
	<path class="st3" d="M507.5,158.9c-0.4,2.1-2.5,4.2-4.6,4.6c-3.3,0.5-4.2-3.5-8.8-4c-3.3-0.3-3.9,1.6-6.7,1
		c-3.9-0.8-4.1-4.7-7.3-5.3c-4.6-0.9-8.8,6.1-10.5,5c-1.2-0.8-0.1-4.6,0.4-6.2c0.8-2.2,1.5-2.5,3.7-6.4c2.1-3.6,1.8-4,2.6-4.5
		c2.3-1.6,5.6,0.4,13,3.6c9.5,4.1,17.2,6.4,18.1,10.4C507.7,158,507.5,158.9,507.5,158.9z"/>
	<path class="st3" d="M461.5,177.4l27.3,14c1.5,0.8,3.4,0.2,4.2-1.4l4.9-9.6c0.8-1.5,0.2-3.4-1.4-4.2l-27.3-14
		c-1.5-0.8-3.4-0.2-4.2,1.4l-4.9,9.6C459.3,174.7,459.9,176.6,461.5,177.4z"/>
</g>
<path id="bg-circle" class="st2" d="M126.5,407c-4.7,0-8.5-3.8-8.5-8.5s3.8-8.5,8.5-8.5s8.5,3.8,8.5,8.5S131.2,407,126.5,407z"/>
<path id="bg-wave" class="st2" d="M326,110.8c3.4,0.4,7.9,0.5,9.4-1.9c2-3.1-2.8-7.7-1-10.7c0.9-1.5,3.7-3,12.6-1.7"/>
<path id="bg-sparkle" class="st2" d="M126.5,204.3c-0.8,0.5-2.8,1.7-3,3.7c-0.1,1.2,0.4,2.1,1.2,3.4c1.6,2.6,3.1,4.8,4.3,6.6
	c-1.2-1.4-4-4.5-7.2-7c-0.9-0.7-2-1.5-3.6-1.9c-1.3-0.3-2.5-0.2-3.2-0.1c1.2-0.6,2.6-1.5,3-2.9c0.3-1.1-0.2-2.1-0.6-2.9
	c-0.7-1.5-1.4-3.9-1.4-7.1c0.3,3.5,2.3,6.6,5.4,7.9C123.5,204.7,125.5,204.5,126.5,204.3z"/>
<path id="bg-square" class="st2" d="M448.5,461h11c1.4,0,2.5-1.3,2.5-2.8v-12.3c0-1.6-1.1-2.8-2.5-2.8h-11c-1.4,0-2.5,1.3-2.5,2.8
	v12.3C446,459.7,447.1,461,448.5,461z"/>
<g id="body">
	<path class="st6" d="M349.1,317c6.9,3,16.7,8.2,25.9,17.4c19.4,19.7,22.6,44.1,24.6,63.9c3.2,31.2,6.3,61.3-13.2,82.3
		c-15.8,17.1-39.5,20.2-65.1,23.7c-18,2.4-33.3,1.8-44.4,0.7c-0.9-0.1-1.6-0.7-1.8-1.6c-1.1-5.1-5.7-21.4-21.6-28.9
		c-5.9-2.8-9.2-1.4-9.6-2.9c-1.1-4.8,30-16.4,51.4-23c16.4-5,30.6-8.2,40.9-10.1c0.6-13.3,1.2-26.6,1.8-39.8"/>
	<g>
		<path class="st6" d="M254,522c-55.9-58.6-32.4-180.5,23.5-200h65.1c19.2,14.8,33,131.2,37.6,187.5C385.7,512.5,367.1,512,254,522z
			"/>
		<path class="st6" d="M213.5,445c-8.8-76.4,36.7-110.8,60.5-118.5v22c-20,9-35,38.5-39.5,61.5c-3.2,16.3,2.3,55,13.5,72.5l-71.5,33
			l-21.5-49C162.8,463.7,185.5,455.4,213.5,445z"/>
		<path class="st2" d="M349.1,317c6.9,3,16.7,8.2,25.9,17.4c19.4,19.7,22.6,44.1,24.6,63.9c3.2,31.2,6.3,61.3-13.2,82.3
			c-15.8,17.1-39.5,20.2-65.1,23.7c-18,2.4-33.3,1.8-44.4,0.7c-0.9-0.1-1.6-0.7-1.8-1.6c-1.1-5.1-5.7-21.4-21.6-28.9
			c-5.9-2.8-9.2-1.4-9.6-2.9c-1.1-4.8,30-16.4,51.4-23c16.4-5,30.6-8.2,40.9-10.1c0.6-13.3,1.2-26.6,1.8-39.8"/>
		<path class="st7" d="M243.9,379c-4.3,9.2-11.3,27.7-9.7,51.5c1.1,16.4,5.9,29.3,9.8,37.5"/>
		<path class="st4" d="M380,486c0.3,10.7,0.7,21.3,1,32"/>
	</g>
	<path class="st4" d="M277,326c-11.4,3.4-33.3,12.1-47.5,33.2c-9.9,14.7-12.4,29.8-14.9,44.9c-2.7,16.7-2.4,30.8-1.6,40.6
		c-20.3,9.4-40.7,18.9-61,28.3c10,9.3,20,18.6,30,27.9"/>
</g>
<g id="head">
	<path class="st8" d="M319.5,289C307,312.4,288,313.2,280,310.7c-0.3,23,1.6,69.3,11.8,70.7c12.7,1.7,27.4-31.5,31.2-38.4
		C326.9,336,324.8,321.1,319.5,289z"/>
	<path class="st9" d="M326,249.3c4.5,32-12.7,60.3-37.7,63.8c-24.9,3.5-49.2-19-53.7-51s12.7-60.3,37.7-63.8S321.5,217.3,326,249.3z
		"/>
	<path id="eyebrow-left" class="st10" d="M258.5,240.2c-1.8-1.4-4.4-3-7.8-3.5c-5.4-0.9-9.8,1.5-12.2,3"/>
	<path id="eyebrow-right" class="st10" d="M277.7,238.6c2.3-0.8,5.8-1.7,10.1-1.9c5.2-0.3,9.4,0.5,12,1.2"/>
	<path id="eye-right" class="st11" d="M291.1,261.3c-3.3-0.2-5.8-3.1-5.5-6.4c0.2-3.3,3.1-5.8,6.4-5.5c3.3,0.2,5.8,3.1,5.5,6.4
		C297.3,259.1,294.4,261.6,291.1,261.3z"/>
	<path id="left-eye" class="st11" d="M252,261.4c-3.3-0.2-5.8-3.1-5.5-6.4c0.2-3.3,3.1-5.8,6.4-5.5c3.3,0.2,5.8,3.1,5.5,6.4
		C258.2,259.2,255.3,261.7,252,261.4z"/>
	<path id="mouth" class="st7" d="M293,283.8c-1.9,2-6.4,6-12.6,7.5c-4.7,1.2-8.5,0.4-10.6-0.2"/>
	<g>
		
			<ellipse transform="matrix(7.464377e-02 -0.9972 0.9972 7.464377e-02 19.7417 561.5927)" class="st12" cx="312.5" cy="270.2" rx="9" ry="8.5"/>
	</g>
	<g>
		
			<ellipse transform="matrix(7.464377e-02 -0.9972 0.9972 7.464377e-02 -45.392 501.4002)" class="st12" cx="247.5" cy="275.2" rx="9" ry="8.5"/>
	</g>
	<path id="nose" class="st7" d="M269.5,277.6c-2.9-1-4.8-3.4-4.9-5.9c-0.1-3,2.5-5.7,6.1-6.3l2.2-10.6"/>
	<path class="st11" d="M282.5,168.6c4.6-1.2,11.7-2.3,20.1-0.9c3.4,0.6,15.6,2.8,31.8,18.9c17,17,25.6,35.3,29.4,44.7
		c8.6,21.3,18.8,46.4,8.7,68.7c-6.2,13.7-19.6,18.8-18.4,31.7c0.4,4.4,2,4.4,7.4,15.8c5.3,11.2,9.8,20.6,10.8,32.9
		c0.8,9.9-1,17.6-2.4,23.1c-4.2,16.5-12.7,28.4-19,35.6c-2.4,0.4-4.8,0.8-7.3,1.4c-5.3,1.2-5-3-12.5-8.7c-5.6-6.2-6.3-4.2-9.7-16.7
		c-5.8-21.1-6.8-21-7.5-26.8c-2.9-21,4-30.6,7-53c1.5-11.2,2.3-27.6-1.8-48.4c1.3-2.8,2.7-5.7,3.9-8.9c1.9-4.7,3.4-9.2,4.5-13.4
		c4.1-0.7,7.4-3.4,8.1-6.8c0.9-4.3-2.4-7.6-2.8-7.9c-2.5-2.4-5.2-2.2-8.3-3c-2.3-0.6-5.6-2-14.2-11.6c-7.5-8.4-8.4-11.2-13.8-17.6
		c-11.6-13.8-17.7-13.2-20.6-20.9C273.9,191.5,273.5,182.9,282.5,168.6z"/>
	<path class="st11" d="M277.5,199.7c-3.7,0-11.8,0.4-20.2,5.3c-9.6,5.5-13.8,13.5-15.4,16.6c-4.5,8.8-4.6,16.5-4.5,24.6
		c0,9.3,0.1,23.3,8.9,38.4c9.4,16.1,23.2,23.9,29.4,27c2.4,1.1,4.9,2.2,7.3,3.3c-0.7,4.4-1.4,8.8-2.1,13.3c-7.4,2.3-13.3,5-17.6,7.1
		c-8.9,4.4-15.3,9-16.6,9.9c-9.3,6.7-12.3,11-13.7,10.2c-2.8-1.7,6.4-21,7.5-34c0.3-3.8,0.3-7.6,0.3-7.6c-0.1-4-0.4-7.3-0.7-9.6
		c-5.9-7.3-16.4-24.2-20.7-48.1c-5.2-29.4,9.7-53.8,12.6-58.3c3.2-5.1,21.3-33.5,43.2-31.2c4.1,0.4,7.4,1.8,9.8,3.1
		c-1.5,6.1-3,12.1-4.5,18.2C279.4,191.8,278.5,195.7,277.5,199.7z"/>
	<path class="st13" d="M362.1,289.1c5.7-18.1,1.7-26.8-0.8-30.5c-0.6-0.9-2.1-2.6-16.3-12c-4.9-3.2-9.1-5.9-11.9-7.6"/>
	<path id="ear" class="st14" d="M336.5,257.1c0.7-8.8-7.2-10.6-11.3-10.4l1.5,20.7C329.7,267.6,335.9,265.8,336.5,257.1z"/>
</g>
<g id="laptop">
	<path class="st1" d="M291.7,512.3c-22.9,5.6-45.7,11.1-68.6,16.7c-39.1-0.4-78.1-0.8-117.2-1.3c-3.4,0-4-4.8-0.7-5.6
		c21.8-5.5,43.5-11,65.3-16.4c40-0.6,80-1.1,120-1.7C295.8,503.9,296.7,511.1,291.7,512.3z"/>
	<g id="hand">
		<path class="st6" d="M245.1,473c-3.1,1.2-7.7,3.3-12.9,6.4c-16.4,9.9-30.7,26.7-27.9,31.2c1.2,1.9,6.3,2.5,23.4-4.2
			c-0.6,0.7-2.4,3.1-1.7,4.9c0.9,2.1,5.2,3.2,10.7,1.2c0.2,0.5,0.4,1,0.7,1.3c5.4,7.2,32.9-5.8,39.5-9c-0.7-3.5-3.8-16.9-16.1-25.5
			C254.9,475.1,248.9,473.6,245.1,473z"/>
		<path class="st2" d="M252.4,503.8c-2.5,0.7-5.5,1.8-8.7,3.5c-2.6,1.3-4.7,2.7-6.5,4 M246.7,493.6c-3.1,0.9-7.8,2.6-12.5,6.3
			c-3.5,2.7-5.8,5.5-7.4,7.7 M237.2,486.1c-2.4,1.3-5.1,3-8,5.4c-2.4,2-4.5,4-6.2,5.9 M245.1,473c-3.1,1.2-7.7,3.3-12.9,6.4
			c-16.4,9.9-30.7,26.7-27.9,31.2c1.2,1.9,6.3,2.5,23.4-4.2c-0.6,0.7-2.4,3.1-1.7,4.9c0.9,2.1,5.2,3.2,10.7,1.2
			c0.2,0.5,0.4,1,0.7,1.3c5.4,7.2,32.9-5.8,39.5-9c-0.7-3.5-3.8-16.9-16.1-25.5C254.9,475.1,248.9,473.6,245.1,473z"/>
	</g>
	<path class="st1" d="M201.8,421.1c9.9,32.3,19.9,64.6,29.8,96.9c1.7,5.5-2.5,11-8.2,11c-46.5-0.5-92.9-1-139.4-1.6
		c-3.6,0-6.8-2.4-7.9-5.8c-10.9-32.2-21.8-64.3-32.7-96.5c-1.9-5.5,2.3-11.3,8.1-11.2c47.4,0.4,94.8,0.7,142.2,1.1
		C197.4,415.1,200.7,417.6,201.8,421.1z"/>
	<path class="st11" d="M119.2,479.7c-5.2-7.4-4.7-16.8,1.1-20.9c5.8-4.1,14.8-1.4,20.1,6c5.2,7.4,4.7,16.8-1.1,20.9
		C133.4,489.8,124.4,487.1,119.2,479.7z"/>
</g>
</svg>
