<svg width="99" height="93" viewBox="0 0 99 93" fill="none" xmlns="http://www.w3.org/2000/svg">
<g clip-path="url(#clip0_650_19)">
<path d="M66.7134 1H25.4272C11.4067 1 0 12.4072 0 26.4278V67.7139C0 81.7351 11.4067 93.1417 25.4272 93.1417H66.7134C80.7351 93.1417 92.1417 81.7345 92.1417 67.7139V26.4278C92.1423 12.4072 80.7351 1 66.7134 1ZM83.967 67.7139C83.967 77.2272 76.2272 84.9665 66.7139 84.9665H25.4272C15.9145 84.967 8.17526 77.2272 8.17526 67.7139V26.4278C8.17526 16.9151 15.9145 9.17526 25.4272 9.17526H66.7134C76.2267 9.17526 83.9665 16.9151 83.9665 26.4278V67.7139H83.967Z" fill="#EAA703"/>
<path d="M46.0702 23.3291C32.9784 23.3291 22.3276 33.9798 22.3276 47.0717C22.3276 60.163 32.9784 70.8132 46.0702 70.8132C59.1621 70.8132 69.8128 60.163 69.8128 47.0717C69.8128 33.9798 59.1621 23.3291 46.0702 23.3291ZM46.0702 62.6374C37.4867 62.6374 30.5029 55.6546 30.5029 47.0711C30.5029 38.4871 37.4862 31.5038 46.0702 31.5038C54.6543 31.5038 61.6376 38.4871 61.6376 47.0711C61.6376 55.6546 54.6537 62.6374 46.0702 62.6374Z" fill="#EAA703"/>
<path d="M70.8082 16.3977C69.2331 16.3977 67.6858 17.0354 66.5734 18.1527C65.4556 19.2645 64.813 20.8123 64.813 22.3929C64.813 23.9685 65.4561 25.5158 66.5734 26.6331C67.6852 27.745 69.2331 28.3881 70.8082 28.3881C72.3887 28.3881 73.9311 27.745 75.0484 26.6331C76.1657 25.5158 76.8034 23.968 76.8034 22.3929C76.8034 20.8123 76.1657 19.2645 75.0484 18.1527C73.9366 17.0354 72.3887 16.3977 70.8082 16.3977Z" fill="#EAA703"/>
</g>
<defs>
<clipPath id="clip0_650_19">
<rect width="99" height="93" fill="white"/>
</clipPath>
</defs>
</svg>
