<svg width="99" height="93" viewBox="0 0 99 93" fill="none" xmlns="http://www.w3.org/2000/svg">
<path d="M27.0179 31.5728H9.75331C8.98707 31.5728 8.36621 32.1939 8.36621 32.9598V88.4237C8.36621 89.1899 8.98707 89.8108 9.75331 89.8108H27.0179C27.7842 89.8108 28.405 89.1899 28.405 88.4237V32.9598C28.405 32.1939 27.7842 31.5728 27.0179 31.5728Z" fill="#EAA703"/>
<path d="M18.3925 4C12.1106 4 7 9.10507 7 15.38C7 21.6577 12.1106 26.7647 18.3925 26.7647C24.6694 26.7647 29.7758 21.6574 29.7758 15.38C29.7761 9.10507 24.6694 4 18.3925 4Z" fill="#EAA703"/>
<path d="M70.9322 30.1938C63.9981 30.1938 58.8722 33.1747 55.7632 36.5617V32.9594C55.7632 32.1935 55.1423 31.5723 54.3761 31.5723H37.8422C37.0759 31.5723 36.4551 32.1935 36.4551 32.9594V88.4233C36.4551 89.1895 37.0759 89.8104 37.8422 89.8104H55.0691C55.8353 89.8104 56.4562 89.1895 56.4562 88.4233V60.9815C56.4562 51.7343 58.9679 48.1318 65.414 48.1318C72.4344 48.1318 72.9923 53.9071 72.9923 61.4573V88.4235C72.9923 89.1898 73.6131 89.8106 74.3794 89.8106H91.6126C92.3789 89.8106 92.9997 89.1898 92.9997 88.4235V58.0007C92.9997 44.2504 90.3778 30.1938 70.9322 30.1938Z" fill="#EAA703"/>
</svg>
