<svg width="74" height="98" viewBox="0 0 74 98" fill="none" xmlns="http://www.w3.org/2000/svg">
<path d="M21.2357 47.9842C14.5814 47.9842 9.37852 46.1197 5.62711 42.3905C1.8757 38.6614 0 33.3373 0 26.4183V5.45888C0 2.44402 2.42937 0 5.42615 0C8.42292 0 10.8523 2.44402 10.8523 5.45888V26.0139C10.8523 30.5068 11.7678 33.7417 13.5989 35.7186C15.4299 37.6955 17.9978 38.6839 21.3026 38.6839C24.6075 38.6839 27.1754 37.6955 29.0064 35.7186C30.8375 33.7417 31.753 30.5068 31.753 26.0139V5.39149C31.753 2.41385 34.1524 0 37.1122 0C40.0719 0 42.4713 2.41385 42.4713 5.39149V26.4183C42.4713 27.6221 42.4145 28.7777 42.301 29.885L42.4285 70.7104C43.1633 64.4104 45.8607 59.2051 50.1046 55.4695C54.9488 51.2055 61.4039 49.2055 68.2278 49.2103C70.7677 49.2121 72.8253 51.285 72.8235 53.8402C72.8217 56.3954 70.7612 58.4653 68.2213 58.4635C63.1276 58.4599 58.9856 59.9473 56.1612 62.4334C53.4084 64.8565 51.5094 68.5702 51.4254 73.9238C51.3559 78.7761 53.4188 82.3568 56.6175 84.8325C59.9325 87.3982 64.5674 88.8192 69.3289 88.744C71.8685 88.7039 73.9595 90.7425 73.9994 93.2974C74.0393 95.8523 72.0129 97.9559 69.4733 97.996C62.9521 98.099 56.2068 96.1895 51.009 92.1664C46.5467 88.7126 43.3052 83.7405 42.4497 77.497L42.4967 92.5354C42.5047 95.0906 40.4522 97.1685 37.9123 97.1765C35.3724 97.1846 33.307 95.1197 33.299 92.5645L33.1899 57.6455C33.1725 52.0812 26.7666 47.9842 21.2357 47.9842Z" fill="#F6B129"/>
</svg>
